<svg xmlns="http://www.w3.org/2000/svg" xmlns:xlink="http://www.w3.org/1999/xlink" version="1.1" x="0px" y="0px" viewBox="0 0 32 40" style="enable-background:new 0 0 32 32;" xml:space="preserve"><g><g><path d="M29.3,28H2.8C2.3,28,2,27.7,2,27.3V16c0-0.4,0.3-0.8,0.8-0.8h26.5c0.4,0,0.8,0.3,0.8,0.8v11.3C30,27.7,29.7,28,29.3,28z     M3.5,26.5h25v-9.8h-25V26.5z"/></g><g><path d="M31.3,16.8H0.8C0.3,16.8,0,16.4,0,16v-4.4c0-0.4,0.3-0.8,0.8-0.8h30.5c0.4,0,0.8,0.3,0.8,0.8V16    C32,16.4,31.7,16.8,31.3,16.8z M1.5,15.3h29v-2.9h-29V15.3z"/></g><g><path d="M24.8,12.3H16c-0.3,0-0.5-0.1-0.6-0.4c-0.1-0.2-0.1-0.5,0-0.7c0.1-0.3,3.3-6.2,7.2-7.1c1.4-0.3,2.7,0.2,3.8,1.5    c1.1,1.4,1.8,3.6,1.1,5.2C27,11.8,26,12.3,24.8,12.3z M17.3,10.8h7.4c1,0,1.3-0.5,1.3-0.7c0.4-0.9,0-2.5-0.9-3.6    c-0.4-0.5-1.2-1.3-2.3-1C20.7,6.1,18.5,8.9,17.3,10.8z"/></g><g><path d="M16,12.3H7.3c-1.3,0-2.2-0.5-2.7-1.5C3.8,9.2,4.5,7,5.6,5.6c1.1-1.3,2.5-1.9,3.8-1.5c3.9,0.9,7.1,6.9,7.2,7.1    c0.1,0.2,0.1,0.5,0,0.7C16.5,12.2,16.3,12.3,16,12.3z M8.7,5.5c-0.9,0-1.5,0.7-1.9,1.1c-0.9,1.1-1.3,2.7-0.9,3.6    c0.1,0.2,0.3,0.7,1.3,0.7h7.4c-1.1-1.7-3.3-4.7-5.6-5.3C8.9,5.5,8.8,5.5,8.7,5.5z"/></g><g><path d="M16,25.2c-0.2,0-0.4-0.1-0.5-0.2c-0.3-0.2-2.5-2.2-3-2.9c-0.4-0.6-0.6-1.3-0.4-2c0.2-0.8,0.7-1.4,1.5-1.8    c0.9-0.4,1.8-0.1,2.4,0.3c0.6-0.4,1.5-0.8,2.4-0.3c0.8,0.3,1.3,1,1.5,1.8c0.2,0.7,0,1.5-0.4,2c-0.6,0.7-2.8,2.7-3,2.9    C16.4,25.1,16.2,25.2,16,25.2z M14.5,19.6c-0.1,0-0.2,0-0.3,0.1c-0.3,0.2-0.6,0.4-0.7,0.8c-0.1,0.3,0,0.6,0.1,0.8    c0.3,0.4,1.4,1.4,2.3,2.3c0.9-0.8,2-1.9,2.3-2.3c0.2-0.2,0.2-0.5,0.1-0.8c-0.1-0.3-0.3-0.6-0.7-0.8c-0.6-0.3-1.2,0.5-1.2,0.5    c-0.3,0.3-0.9,0.3-1.2,0C15.4,20.1,15,19.6,14.5,19.6z"/></g></g><text x="0" y="47" fill="#000000" font-size="5px" font-weight="bold" font-family="'Helvetica Neue', Helvetica, Arial-Unicode, Arial, Sans-serif">Created by Royyan Wijaya</text><text x="0" y="52" fill="#000000" font-size="5px" font-weight="bold" font-family="'Helvetica Neue', Helvetica, Arial-Unicode, Arial, Sans-serif">from the Noun Project</text></svg>