<svg xmlns="http://www.w3.org/2000/svg" xmlns:xlink="http://www.w3.org/1999/xlink" version="1.1" x="0px" y="0px" viewBox="0 0 32 40" style="enable-background:new 0 0 32 32;" xml:space="preserve"><g><g><path d="M7.6,25.5C3,25.5,0.6,6.6,0,0.8c0-0.2,0-0.4,0.2-0.6C0.3,0.1,0.5,0,0.8,0h13.7c0.2,0,0.4,0.1,0.6,0.2    c0.1,0.2,0.2,0.4,0.2,0.6C14.5,6.6,12.1,25.5,7.6,25.5z M1.6,1.5c1.3,11,3.9,22.5,6,22.5c2.1,0,4.7-11.5,6-22.5H1.6z"/></g><g><path d="M7.6,32c-0.4,0-0.8-0.3-0.8-0.8v-6.5c0-0.4,0.3-0.8,0.8-0.8s0.8,0.3,0.8,0.8v6.5C8.3,31.7,8,32,7.6,32z"/></g><g><path d="M14.4,32H0.8C0.3,32,0,31.7,0,31.3s0.3-0.8,0.8-0.8h13.7c0.4,0,0.8,0.3,0.8,0.8S14.8,32,14.4,32z"/></g><g><path d="M24.4,25.5c-4.5,0-7-18.9-7.6-24.7c0-0.2,0-0.4,0.2-0.6C17.2,0.1,17.4,0,17.6,0h13.7c0.2,0,0.4,0.1,0.6,0.2    C32,0.4,32,0.6,32,0.8C31.4,6.6,29,25.5,24.4,25.5z M18.4,1.5c1.3,11,3.9,22.5,6,22.5c2.1,0,4.7-11.5,6-22.5H18.4z"/></g><g><path d="M24.4,32c-0.4,0-0.8-0.3-0.8-0.8v-6.5c0-0.4,0.3-0.8,0.8-0.8s0.8,0.3,0.8,0.8v6.5C25.2,31.7,24.8,32,24.4,32z"/></g><g><path d="M31.3,32H17.6c-0.4,0-0.8-0.3-0.8-0.8s0.3-0.8,0.8-0.8h13.7c0.4,0,0.8,0.3,0.8,0.8S31.7,32,31.3,32z"/></g><g><path d="M7.6,25.5c-1.1,0-4.3,0-7.1-21.2c0-0.3,0.1-0.6,0.3-0.7c0,0,2.4-1.5,5,0.3l0,0c1.9,1.3,4.7,2.4,7.7,0.5    c0.2-0.2,0.6-0.2,0.8,0c0.2,0.2,0.4,0.4,0.3,0.7C11.8,25.5,8.6,25.5,7.6,25.5z M2,4.7C4.1,19.9,6.5,24,7.6,24    c1,0,3.3-3.8,5.3-17.7C9.5,7.7,6.5,6.2,4.9,5.1l0,0C3.7,4.3,2.6,4.5,2,4.7z"/></g><g><path d="M24.4,25.5c-1.1,0-4,0-6.8-18.7c0-0.3,0.1-0.5,0.3-0.7c0,0,3.6-3,7.8-1.4l0,0c1.5,0.6,3.1,0.8,4.8,0.6    c0.2,0,0.5,0.1,0.6,0.2s0.2,0.4,0.2,0.6C28.5,25.5,25.4,25.5,24.4,25.5z M19.2,7c2.1,13.4,4.3,17,5.2,17c1,0,3.2-3.6,5.3-17.2    c-1.5,0-3.1-0.2-4.5-0.8l0,0C22.5,5.1,20.1,6.4,19.2,7z"/></g></g><text x="0" y="47" fill="#000000" font-size="5px" font-weight="bold" font-family="'Helvetica Neue', Helvetica, Arial-Unicode, Arial, Sans-serif">Created by Royyan Wijaya</text><text x="0" y="52" fill="#000000" font-size="5px" font-weight="bold" font-family="'Helvetica Neue', Helvetica, Arial-Unicode, Arial, Sans-serif">from the Noun Project</text></svg>