<?xml version="1.0" encoding="utf-8"?>
<!-- Generator: Adobe Illustrator 23.1.1, SVG Export Plug-In . SVG Version: 6.00 Build 0)  -->
<svg version="1.1" id="Layer_1" xmlns="http://www.w3.org/2000/svg" xmlns:xlink="http://www.w3.org/1999/xlink" x="0px" y="0px"
	 viewBox="0 0 32 40" style="enable-background:new 0 0 32 40;" xml:space="preserve">
<g>
	<g>
		<path d="M31.3,32H0.8C0.3,32,0,31.7,0,31.3V12.8c0-0.3,0.2-0.5,0.4-0.7C0.7,12,1,12,1.2,12.2L16,23.8l14.8-11.6
			c0.2-0.2,0.5-0.2,0.8-0.1s0.4,0.4,0.4,0.7v18.5C32,31.7,31.7,32,31.3,32z M1.5,30.5h29V14.3l-14,11c-0.3,0.2-0.7,0.2-0.9,0l-14-11
			v16.2H1.5z"/>
	</g>
	<g>
		<path d="M16,25.5c-0.2,0-0.3-0.1-0.5-0.2L4.3,16.5C4.1,16.3,4,16.1,4,15.9V0.8C4,0.3,4.3,0,4.8,0h22.5C27.7,0,28,0.3,28,0.8v15.1
			c0,0.2-0.1,0.4-0.3,0.6l-11.3,8.9C16.3,25.4,16.2,25.5,16,25.5z M5.5,15.5L16,23.8l10.5-8.3v-14h-21V15.5z"/>
	</g>
	<g>
		<g>
			<path d="M4.8,16.6c-0.2,0-0.3-0.1-0.5-0.2l-4-3.1C0.1,13.2,0,13,0,12.8s0.1-0.4,0.3-0.6l4-3.1C4.5,8.9,4.8,8.9,5.1,9
				c0.3,0.1,0.4,0.4,0.4,0.7V16c0,0.3-0.2,0.5-0.4,0.7C5,16.6,4.9,16.6,4.8,16.6z M2,12.8l2,1.6v-3.2L2,12.8z"/>
		</g>
		<g>
			<path d="M27.3,16.6c-0.1,0-0.2,0-0.3-0.1c-0.3-0.1-0.4-0.4-0.4-0.7V9.6c0-0.3,0.2-0.5,0.4-0.7c0.3-0.1,0.6-0.1,0.8,0.1l4,3.1
				c0.2,0.1,0.3,0.4,0.3,0.6s-0.1,0.4-0.3,0.6l-4,3.1C27.6,16.6,27.4,16.6,27.3,16.6z M28,11.1v3.2l2-1.6L28,11.1z"/>
		</g>
	</g>
</g>
<text transform="matrix(1 0 0 1 0 47)" style="font-family:'HelveticaNeue-Bold'; font-size:5px;">Created by Royyan Wijaya</text>
<text transform="matrix(1 0 0 1 0 52)" style="font-family:'HelveticaNeue-Bold'; font-size:5px;">from the Noun Project</text>
<g>
	<path d="M15.2,14.7c-0.2,0-0.4-0.1-0.5-0.2l-4.2-4.1c-0.3-0.3-0.3-0.8,0-1.1c0.3-0.3,0.8-0.3,1.1,0l3.7,3.5l6.7-8
		c0.3-0.3,0.7-0.4,1.1-0.1C23.2,5,23.2,5.5,23,5.8l-7.2,8.6C15.6,14.6,15.4,14.7,15.2,14.7C15.2,14.7,15.2,14.7,15.2,14.7z"/>
</g>
</svg>
