<?xml version="1.0" standalone="no"?>
<!DOCTYPE svg PUBLIC "-//W3C//DTD SVG 20010904//EN"
 "http://www.w3.org/TR/2001/REC-SVG-20010904/DTD/svg10.dtd">
<svg version="1.0" xmlns="http://www.w3.org/2000/svg"
 width="700.000000pt" height="700.000000pt" viewBox="0 0 700.000000 700.000000"
 preserveAspectRatio="xMidYMid meet">
<metadata>
Created by potrace 1.11, written by Peter Selinger 2001-2013
</metadata>
<g transform="translate(0.000000,700.000000) scale(0.100000,-0.100000)"
fill="#000000" stroke="none">
<path d="M0 3500 l0 -3500 3500 0 3500 0 0 3500 0 3500 -3500 0 -3500 0 0
-3500z m5484 1300 c126 -19 203 -81 231 -189 8 -31 35 -118 60 -193 25 -75 57
-188 70 -250 27 -119 104 -355 138 -423 11 -22 26 -62 32 -90 7 -27 54 -153
105 -280 50 -126 114 -297 142 -380 56 -169 61 -180 142 -322 102 -181 128
-298 87 -389 -52 -114 -179 -112 -259 4 -46 68 -76 149 -126 341 -25 94 -54
187 -65 208 -36 71 -94 107 -232 145 -81 22 -97 23 -393 20 -275 -3 -317 -6
-374 -24 -36 -11 -100 -23 -143 -28 -119 -11 -137 -29 -179 -170 -13 -41 -37
-102 -55 -135 -21 -38 -44 -108 -64 -193 -17 -72 -38 -144 -47 -158 -41 -61
-161 -87 -234 -50 -92 48 -105 103 -45 196 19 30 35 62 35 72 0 40 45 148 101
245 65 111 81 151 105 252 8 37 32 95 55 132 22 37 58 120 80 185 22 64 51
136 64 158 39 67 71 163 99 301 20 96 37 150 65 205 25 48 42 96 46 134 5 38
21 85 45 130 21 39 43 96 49 127 7 31 25 78 42 103 16 26 38 82 50 124 36 134
64 162 188 187 83 16 100 17 185 5z m-4625 -105 c63 -32 148 -166 216 -340 41
-105 80 -179 157 -297 38 -59 97 -169 130 -245 33 -76 73 -164 90 -195 59
-111 127 -168 182 -154 55 14 209 248 246 376 30 103 60 157 125 231 33 38 73
99 97 149 168 353 215 426 301 469 42 20 51 22 77 11 39 -16 104 -144 125
-245 17 -84 19 -250 3 -395 -7 -58 -11 -139 -9 -180 1 -41 2 -170 1 -286 0
-208 0 -211 30 -302 29 -89 30 -96 24 -219 -6 -120 -5 -133 20 -208 34 -103
39 -174 29 -424 -8 -196 -9 -204 -32 -222 -17 -14 -39 -19 -85 -19 -71 0 -120
24 -137 68 -6 15 -12 95 -14 177 -2 124 -6 161 -24 214 -21 62 -22 79 -21 440
1 356 0 380 -20 443 -18 60 -20 88 -18 232 3 154 2 166 -18 193 -28 37 -68 42
-101 11 -14 -13 -53 -81 -87 -153 -35 -71 -103 -191 -152 -265 -117 -175 -147
-229 -194 -346 -22 -53 -51 -116 -65 -139 -39 -67 -95 -94 -149 -71 -57 24
-106 93 -193 274 -46 96 -111 217 -145 270 -64 102 -134 236 -162 313 -21 56
-85 143 -110 147 -37 7 -66 -9 -86 -47 -34 -69 -42 -158 -35 -407 7 -227 7
-231 -18 -310 -23 -74 -25 -95 -28 -329 -1 -137 1 -295 5 -350 9 -115 -2 -205
-35 -272 -28 -58 -69 -83 -136 -83 -44 0 -58 5 -87 30 -72 64 -84 150 -39 278
26 73 27 86 28 277 1 181 3 206 24 265 22 64 23 71 16 345 l-7 280 28 90 c25
83 28 106 31 285 1 107 4 230 4 273 1 42 1 103 -1 135 -3 71 12 127 45 171 49
68 113 88 174 56z m2816 -1250 c78 -20 141 -60 182 -113 64 -84 83 -222 43
-303 -46 -92 -95 -159 -125 -170 -16 -6 -49 -20 -73 -30 -124 -56 -327 -119
-442 -139 -139 -23 -200 -65 -200 -136 0 -118 183 -223 370 -212 130 8 224 54
494 241 21 15 47 27 58 27 26 0 68 -44 68 -73 0 -32 -61 -88 -145 -133 -39
-21 -90 -58 -115 -86 l-45 -49 -165 -29 c-201 -37 -255 -37 -348 -6 -139 48
-221 123 -296 274 -89 177 -86 313 9 536 30 70 52 101 131 188 151 164 169
177 287 208 90 23 231 26 312 5z"/>
<path d="M5363 4448 c-55 -62 -160 -307 -199 -465 -13 -52 -37 -120 -55 -151
-72 -126 -99 -186 -99 -214 0 -16 -21 -72 -46 -124 -45 -91 -46 -97 -42 -170
5 -115 7 -116 227 -112 167 3 179 2 236 -21 79 -32 204 -33 322 -3 156 40 173
58 144 159 -10 37 -24 82 -31 98 -6 17 -16 57 -21 91 -5 34 -22 90 -38 126
-16 36 -34 92 -41 124 -6 33 -26 84 -45 114 -18 30 -38 75 -45 100 -6 25 -34
115 -61 200 -45 143 -53 160 -100 213 -55 62 -75 69 -106 35z"/>
<path d="M3455 3330 c-103 -27 -121 -35 -183 -88 -164 -137 -242 -249 -245
-350 -2 -60 15 -94 59 -118 31 -17 36 -17 87 -1 30 9 63 17 75 17 12 0 45 9
74 20 29 11 88 29 130 40 137 34 225 93 309 207 62 83 53 162 -25 231 -39 34
-119 62 -175 61 -20 0 -67 -8 -106 -19z"/>
</g>
</svg>
